<svg width="17" height="16" viewBox="0 0 17 16" fill="none" xmlns="http://www.w3.org/2000/svg">
<g clip-path="url(#clip0_717_7427)">
<path d="M3.83333 7.4L5.16667 6.06667L8.83333 9.73333L11.1667 7.4L13.1667 9.4V3.33333H3.83333V7.4ZM3.83333 9.286V12.6667H5.9L7.89067 10.6767L5.16667 7.95267L3.83333 9.286ZM7.786 12.6667H13.1667V11.286L11.1667 9.286L7.786 12.6667ZM3.16667 2H13.8333C14.0101 2 14.1797 2.07024 14.3047 2.19526C14.4298 2.32029 14.5 2.48986 14.5 2.66667V13.3333C14.5 13.5101 14.4298 13.6797 14.3047 13.8047C14.1797 13.9298 14.0101 14 13.8333 14H3.16667C2.98986 14 2.82029 13.9298 2.69526 13.8047C2.57024 13.6797 2.5 13.5101 2.5 13.3333V2.66667C2.5 2.48986 2.57024 2.32029 2.69526 2.19526C2.82029 2.07024 2.98986 2 3.16667 2ZM10.8333 6.66667C10.5681 6.66667 10.3138 6.56131 10.1262 6.37377C9.93869 6.18624 9.83333 5.93188 9.83333 5.66667C9.83333 5.40145 9.93869 5.1471 10.1262 4.95956C10.3138 4.77202 10.5681 4.66667 10.8333 4.66667C11.0985 4.66667 11.3529 4.77202 11.5404 4.95956C11.728 5.1471 11.8333 5.40145 11.8333 5.66667C11.8333 5.93188 11.728 6.18624 11.5404 6.37377C11.3529 6.56131 11.0985 6.66667 10.8333 6.66667Z" fill="#12161A"/>
</g>
<defs>
<clipPath id="clip0_717_7427">
<rect width="16" height="16" fill="white" transform="translate(0.5)"/>
</clipPath>
</defs>
</svg>
