<svg width="240" height="59" viewBox="0 0 240 59" fill="none" xmlns="http://www.w3.org/2000/svg">
<path d="M10.8862 57.0843H0V2.31331H10.8862V20.2755C13.4036 17.2137 17.0096 15.6489 21.5002 15.6489C30.073 15.6489 38.4418 21.6362 38.4418 36.8088C38.4418 52.1175 30.005 58.0369 21.5002 58.0369C17.0096 58.0369 13.4036 56.472 10.8862 53.4102V57.0843ZM10.8862 39.1902C10.8862 44.6333 13.7438 48.5115 18.7786 48.5115C23.1331 48.5115 27.5556 45.994 27.5556 36.8088C27.5556 27.7597 23.1331 25.1743 18.7786 25.1743C13.7438 25.1743 10.8862 29.1205 10.8862 34.4275V39.1902Z" fill="#7D5CFD"/>
<path d="M56.7989 57.0843H45.9127V16.6014H56.7989V57.0843ZM45.1643 6.12347C45.1643 2.72154 47.8858 0 51.2878 0C54.6897 0 57.4112 2.72154 57.4112 6.12347C57.4112 9.52539 54.6897 12.2469 51.2878 12.2469C47.8858 12.2469 45.1643 9.52539 45.1643 6.12347Z" fill="#7D5CFD"/>
<path d="M66.1781 49.1238V2.31331H77.0642V46.4023C77.0642 47.8991 77.6766 48.5115 79.6497 48.5115H81.2826V57.0843H74.0706C68.6275 57.0843 66.1781 54.2947 66.1781 49.1238Z" fill="#7D5CFD"/>
<path d="M88.1046 49.1238V2.31331H98.9907V46.4023C98.9907 47.8991 99.6031 48.5115 101.576 48.5115H103.209V57.0843H95.997C90.5539 57.0843 88.1046 54.2947 88.1046 49.1238Z" fill="#7D5CFD"/>
<path d="M142.187 44.9735L142.799 47.2868H142.935L143.547 44.9735L151.848 16.6014H163.755L149.807 57.0843H135.859L121.911 16.6014H133.818L142.187 44.9735Z" fill="#7D5CFD"/>
<path d="M187.315 58.0369C177.449 58.0369 167.856 52.1175 167.856 36.8088C167.856 21.6362 177.381 15.6489 187.315 15.6489C197.248 15.6489 206.774 21.6362 206.774 36.8088C206.774 52.1175 197.18 58.0369 187.315 58.0369ZM178.742 36.8088C178.742 44.6333 182.62 48.5115 187.315 48.5115C192.009 48.5115 195.888 44.6333 195.888 36.8088C195.888 29.1205 192.009 25.1743 187.315 25.1743C182.62 25.1743 178.742 29.1205 178.742 36.8088Z" fill="#7D5CFD"/>
<path d="M210.88 16.6014H218.092V7.21208H228.978V16.6014H239.864V26.1268H228.978V44.089C228.978 46.2662 229.93 47.5589 232.516 47.5589C236.394 47.5589 238.843 47.5589 240 46.6064V56.1318C238.027 57.0843 234.761 57.0843 230.066 57.0843C223.263 57.0843 218.092 54.703 218.092 46.8105V26.1268H210.88V16.6014Z" fill="#7D5CFD"/>
</svg>
