<svg width="80" height="20" viewBox="0 0 80 20" fill="none" xmlns="http://www.w3.org/2000/svg">
<path d="M26.6584 15.9329C28.1039 15.9329 28.9541 14.4175 28.9541 11.9485C28.9541 9.47954 28.1039 7.96411 26.6584 7.96411C25.213 7.96411 24.3628 9.47954 24.3628 11.9485C24.3628 14.4175 25.213 15.9329 26.6584 15.9329ZM26.6584 16.7672C23.9206 16.7672 21.863 15.0985 21.863 11.9485C21.863 8.79845 23.9206 7.12978 26.6584 7.12978C29.3962 7.12978 31.4538 8.79845 31.4538 11.9485C31.4538 15.0985 29.3962 16.7672 26.6584 16.7672Z" fill="#DAE0E6"/>
<path d="M39.3816 7.36816L39.0245 8.35574C38.7014 8.15141 38.2933 8.06628 37.8682 8.06628C36.7458 8.06628 35.8956 8.93467 35.8956 9.78603V16.5288H33.4809V7.36816H35.3004L35.6405 8.50899C36.0656 7.69168 36.9839 7.12978 38.1572 7.12978C38.6334 7.12978 39.0585 7.19789 39.3816 7.36816Z" fill="#DAE0E6"/>
<path d="M40.6382 16.5288V7.36816H43.0529V16.5288H40.6382ZM41.8456 6.68137C40.8933 6.68137 40.2641 6.0173 40.2641 5.14891C40.2641 4.28052 40.8933 3.61646 41.8456 3.61646C42.7979 3.61646 43.4271 4.28052 43.4271 5.14891C43.4271 6.0173 42.7979 6.68137 41.8456 6.68137Z" fill="#DAE0E6"/>
<path d="M49.8742 15.9329C51.3196 15.9329 52.1699 14.4175 52.1699 11.9485C52.1699 9.47954 51.3196 7.96411 49.8742 7.96411C48.4288 7.96411 47.5785 9.47954 47.5785 11.9485C47.5785 14.4175 48.4288 15.9329 49.8742 15.9329ZM49.8742 16.7672C47.1364 16.7672 45.0788 15.0985 45.0788 11.9485C45.0788 8.79845 47.1364 7.12978 49.8742 7.12978C52.612 7.12978 54.6696 8.79845 54.6696 11.9485C54.6696 15.0985 52.612 16.7672 49.8742 16.7672Z" fill="#DAE0E6"/>
<path d="M61.0329 7.96411C60.1146 7.96411 59.2984 8.56007 59.1113 9.7009V16.5288H56.6966V7.36816H58.5162L58.8903 8.52601C59.3154 7.7087 60.2677 7.12978 61.5771 7.12978C64.0768 7.12978 65.3352 8.38979 65.3352 10.416V16.5288H62.9205V10.1947C62.9205 8.67926 62.2232 7.96411 61.0329 7.96411Z" fill="#DAE0E6"/>
<path d="M77.2961 16.5288L74.1332 11.3525L70.3921 16.5288H69.3208L73.623 10.5182L69.4058 3.62215H72.0586L75.2555 8.8325L78.8265 3.62215H79.8979L75.7657 9.66684L79.9999 16.5288H77.2961Z" fill="#DAE0E6"/>
<path d="M0 0H4.9966L10.9903 11.096L4.9966 19.7262H2.74813L8.74182 11.096H8.24216L2.24847 19.7262H0L5.99369 11.096L0 0Z" fill="#DAE0E6"/>
<path d="M16.1324 0H18.3809L12.3932 8.63019H12.8929L18.8806 0H21.129L15.1414 8.63019L21.129 19.7262H16.1324L10.1448 8.63019L16.1324 0Z" fill="#DAE0E6"/>
</svg>
