<svg width="17" height="16" viewBox="0 0 17 16" fill="none" xmlns="http://www.w3.org/2000/svg">
<g clip-path="url(#clip0_717_5995)">
<path d="M13.8333 14.6666H3.16667C2.98986 14.6666 2.82029 14.5963 2.69526 14.4713C2.57024 14.3463 2.5 14.1767 2.5 13.9999V1.99992C2.5 1.82311 2.57024 1.65354 2.69526 1.52851C2.82029 1.40349 2.98986 1.33325 3.16667 1.33325H13.8333C14.0101 1.33325 14.1797 1.40349 14.3047 1.52851C14.4298 1.65354 14.5 1.82311 14.5 1.99992V13.9999C14.5 14.1767 14.4298 14.3463 14.3047 14.4713C14.1797 14.5963 14.0101 14.6666 13.8333 14.6666ZM13.1667 13.3333V2.66659H3.83333V13.3333H13.1667ZM5.83333 4.66659H11.1667V5.99992H5.83333V4.66659ZM5.83333 7.33325H11.1667V8.66659H5.83333V7.33325ZM5.83333 9.99992H11.1667V11.3333H5.83333V9.99992Z" fill="#12161A"/>
</g>
<defs>
<clipPath id="clip0_717_5995">
<rect width="16" height="16" fill="white" transform="translate(0.5)"/>
</clipPath>
</defs>
</svg>
