<svg width="93" height="28" viewBox="0 0 93 28" fill="current" xmlns="http://www.w3.org/2000/svg">
<path d="M21.3262 0C27.6559 9.2772e-06 32.787 5.13122 32.7871 11.4609V15.3779C32.7871 22.3487 27.1367 27.9999 20.166 28H10.5908C9.94998 28 9.42994 27.4806 9.42969 26.8398V22.9219C9.4299 22.4413 9.82017 22.0518 10.3008 22.0518H19.4404C23.2864 22.0517 26.4043 18.9338 26.4043 15.0879V12.8203C26.4043 9.02512 23.3274 5.94825 19.5322 5.94824H7.25391V11.3164H14.3623V17.2646H7.25391V27.8545H0V0H21.3262Z" fill="current"/>
<path d="M17.1191 8.41448C17.1191 8.01385 17.4439 7.68909 17.8445 7.68909H19.2953C22.2599 7.68909 24.6632 10.0924 24.6632 13.057V15.0881C24.6632 17.8924 22.3898 20.1658 19.5855 20.1658H17.8445C17.4439 20.1658 17.1191 19.841 17.1191 19.4404V8.41448Z" fill="current"/>
<path d="M38.3143 12.7843H36.7876V4.13328H41.6947V5.42972H38.3143V7.97415H41.4645V9.2706H38.3143V12.7843Z" fill="current"/>
<path d="M51.0374 8.44669C51.0374 9.11712 50.9526 9.72698 50.783 10.2763C50.6214 10.8174 50.371 11.2859 50.0318 11.6817C49.7006 12.0775 49.2765 12.3805 48.7596 12.5905C48.2507 12.8005 47.6529 12.9055 46.9663 12.9055C46.2717 12.9055 45.6659 12.8005 45.1489 12.5905C44.64 12.3724 44.22 12.0695 43.8888 11.6817C43.5576 11.2859 43.3072 10.8134 43.1376 10.2641C42.976 9.71486 42.8953 9.10501 42.8953 8.43457C42.8953 7.53796 43.0407 6.75848 43.3314 6.09612C43.6303 5.43376 44.0786 4.92084 44.6764 4.55735C45.2822 4.18578 46.0495 4 46.9785 4C47.8912 4 48.6465 4.18578 49.2442 4.55735C49.842 4.92084 50.2903 5.4378 50.5891 6.10824C50.888 6.7706 51.0374 7.55008 51.0374 8.44669ZM44.531 8.44669C44.531 9.10097 44.6158 9.66236 44.7854 10.1309C44.9631 10.5994 45.2297 10.9588 45.5851 11.2092C45.9486 11.4596 46.409 11.5848 46.9663 11.5848C47.5399 11.5848 48.0043 11.4596 48.3597 11.2092C48.7151 10.9588 48.9777 10.5994 49.1473 10.1309C49.3169 9.66236 49.4017 9.10097 49.4017 8.44669C49.4017 7.46931 49.2119 6.70194 48.8323 6.14459C48.4526 5.58724 47.8347 5.30856 46.9785 5.30856C46.413 5.30856 45.9486 5.43376 45.5851 5.68417C45.2297 5.93457 44.9631 6.29402 44.7854 6.76252C44.6158 7.23102 44.531 7.79241 44.531 8.44669Z" fill="current"/>
<path d="M60.6098 8.44669C60.6098 9.11712 60.525 9.72698 60.3553 10.2763C60.1938 10.8174 59.9434 11.2859 59.6041 11.6817C59.273 12.0775 58.8489 12.3805 58.3319 12.5905C57.823 12.8005 57.2253 12.9055 56.5387 12.9055C55.844 12.9055 55.2382 12.8005 54.7213 12.5905C54.2124 12.3724 53.7923 12.0695 53.4612 11.6817C53.13 11.2859 52.8796 10.8134 52.71 10.2641C52.5484 9.71486 52.4676 9.10501 52.4676 8.43457C52.4676 7.53796 52.613 6.75848 52.9038 6.09612C53.2027 5.43376 53.651 4.92084 54.2487 4.55735C54.8545 4.18578 55.6219 4 56.5508 4C57.4636 4 58.2188 4.18578 58.8166 4.55735C59.4143 4.92084 59.8626 5.4378 60.1615 6.10824C60.4604 6.7706 60.6098 7.55008 60.6098 8.44669ZM54.1033 8.44669C54.1033 9.10097 54.1881 9.66236 54.3578 10.1309C54.5355 10.5994 54.802 10.9588 55.1574 11.2092C55.5209 11.4596 55.9814 11.5848 56.5387 11.5848C57.1122 11.5848 57.5767 11.4596 57.9321 11.2092C58.2875 10.9588 58.55 10.5994 58.7196 10.1309C58.8893 9.66236 58.9741 9.10097 58.9741 8.44669C58.9741 7.46931 58.7843 6.70194 58.4046 6.14459C58.025 5.58724 57.407 5.30856 56.5508 5.30856C55.9854 5.30856 55.5209 5.43376 55.1574 5.68417C54.802 5.93457 54.5355 6.29402 54.3578 6.76252C54.1881 7.23102 54.1033 7.79241 54.1033 8.44669Z" fill="current"/>
<path d="M69.5279 8.37399C69.5279 9.3433 69.3421 10.1551 68.9705 10.8094C68.607 11.4637 68.078 11.9564 67.3833 12.2876C66.6967 12.6187 65.8647 12.7843 64.8873 12.7843H62.4519V4.13328H65.1418C66.0384 4.13328 66.8138 4.29483 67.4681 4.61793C68.1224 4.94103 68.6272 5.41761 68.9826 6.04766C69.3461 6.66963 69.5279 7.44507 69.5279 8.37399ZM67.9043 8.42246C67.9043 7.73586 67.7993 7.17044 67.5893 6.72617C67.3792 6.28191 67.0683 5.95477 66.6563 5.74475C66.2444 5.52666 65.7395 5.41761 65.1418 5.41761H64.0028V11.4879H64.9358C65.9374 11.4879 66.6805 11.2334 67.1652 10.7246C67.6579 10.2076 67.9043 9.44023 67.9043 8.42246Z" fill="current"/>
<path d="M42.3611 21.5162C42.3611 22.025 42.2359 22.4653 41.9855 22.8368C41.7351 23.2084 41.3716 23.4952 40.895 23.6971C40.4265 23.899 39.8651 24 39.2109 24C38.8958 24 38.5929 23.9798 38.3021 23.9394C38.0194 23.9071 37.7488 23.8546 37.4903 23.7819C37.2399 23.7092 37.0057 23.6204 36.7876 23.5153V22.0614C37.1511 22.2229 37.5509 22.3724 37.9871 22.5097C38.4233 22.6389 38.8676 22.7036 39.3199 22.7036C39.6672 22.7036 39.95 22.6591 40.168 22.5703C40.3942 22.4733 40.5598 22.3441 40.6648 22.1826C40.7698 22.0129 40.8223 21.8191 40.8223 21.601C40.8223 21.3586 40.7537 21.1527 40.6164 20.983C40.479 20.8134 40.2771 20.6559 40.0105 20.5105C39.744 20.3651 39.4128 20.2116 39.017 20.0501C38.7504 19.937 38.4879 19.8118 38.2294 19.6745C37.979 19.5291 37.7529 19.3554 37.5509 19.1535C37.349 18.9515 37.1874 18.7132 37.0663 18.4386C36.9451 18.164 36.8845 17.8409 36.8845 17.4693C36.8845 16.9766 37.0017 16.5525 37.2359 16.1971C37.4782 15.8417 37.8134 15.5711 38.2416 15.3853C38.6777 15.1995 39.1826 15.1066 39.7561 15.1066C40.2165 15.1066 40.6487 15.1551 41.0525 15.252C41.4564 15.3489 41.8563 15.4863 42.2521 15.664L41.7553 16.912C41.3999 16.7585 41.0566 16.6373 40.7254 16.5485C40.3942 16.4596 40.055 16.4152 39.7076 16.4152C39.433 16.4152 39.1987 16.4596 39.0049 16.5485C38.811 16.6292 38.6656 16.7464 38.5687 16.8998C38.4718 17.0533 38.4233 17.231 38.4233 17.433C38.4233 17.6672 38.4839 17.8651 38.605 18.0267C38.7262 18.1882 38.912 18.3417 39.1624 18.4871C39.4209 18.6244 39.7521 18.7819 40.1559 18.9596C40.6244 19.1616 41.0202 19.3716 41.3433 19.5897C41.6664 19.8078 41.9168 20.0703 42.0945 20.3772C42.2723 20.6842 42.3611 21.0638 42.3611 21.5162Z" fill="current"/>
<path d="M47.6778 16.4152C47.282 16.4152 46.9306 16.4879 46.6237 16.6333C46.3167 16.7787 46.0542 16.9887 45.8361 17.2633C45.6261 17.538 45.4646 17.8691 45.3515 18.2569C45.2465 18.6446 45.194 19.0808 45.194 19.5654C45.194 20.2197 45.2828 20.7811 45.4605 21.2496C45.6382 21.71 45.9088 22.0654 46.2723 22.3158C46.6439 22.5662 47.1083 22.6914 47.6657 22.6914C48.0373 22.6914 48.3927 22.6551 48.7319 22.5824C49.0793 22.5016 49.4427 22.3966 49.8224 22.2674V23.588C49.467 23.7334 49.1075 23.8384 48.744 23.9031C48.3886 23.9677 47.9767 24 47.5082 24C46.6196 24 45.8846 23.8183 45.303 23.4548C44.7214 23.0832 44.2893 22.5662 44.0066 21.9039C43.7238 21.2334 43.5825 20.4499 43.5825 19.5533C43.5825 18.899 43.6713 18.3013 43.849 17.7601C44.0348 17.2189 44.2973 16.7504 44.6366 16.3546C44.9839 15.9588 45.4121 15.6519 45.9209 15.4338C46.4298 15.2157 47.0154 15.1066 47.6778 15.1066C48.114 15.1066 48.5421 15.1591 48.9621 15.2641C49.3902 15.3611 49.7901 15.4984 50.1616 15.6761L49.6285 16.9483C49.3216 16.811 49.0025 16.6898 48.6713 16.5848C48.3482 16.4717 48.0171 16.4152 47.6778 16.4152Z" fill="current"/>
<path d="M57.0288 23.8788L56.2412 21.5889H52.9819L52.2065 23.8788H50.5586L53.7331 15.1914H55.5021L58.6766 23.8788H57.0288ZM55.0901 18.0267C55.0578 17.9136 55.0094 17.7601 54.9448 17.5662C54.8801 17.3724 54.8155 17.1745 54.7509 16.9725C54.6943 16.7625 54.6499 16.5889 54.6176 16.4515C54.5772 16.6131 54.5247 16.7989 54.4601 17.0089C54.4036 17.2189 54.347 17.4168 54.2905 17.6026C54.242 17.7884 54.2016 17.9297 54.1693 18.0267L53.406 20.2561H55.8414L55.0901 18.0267Z" fill="current"/>
<path d="M67.1689 23.8788H65.2424L61.1471 17.0937H61.0986C61.1067 17.2714 61.1148 17.4612 61.1228 17.6632C61.139 17.857 61.1511 18.059 61.1592 18.269C61.1673 18.4709 61.1753 18.6769 61.1834 18.8869C61.1915 19.0969 61.1996 19.3069 61.2077 19.517V23.8788H59.8143V15.2278H61.7287L65.8119 21.9645H65.8482C65.8401 21.8029 65.8321 21.6292 65.824 21.4435C65.8159 21.2496 65.8078 21.0517 65.7997 20.8498C65.7997 20.6478 65.7957 20.4418 65.7876 20.2318C65.7795 20.0218 65.7715 19.8199 65.7634 19.626V15.2278H67.1689V23.8788Z" fill="current"/>
<path d="M76.7767 23.8788H74.8503L70.7549 17.0937H70.7065C70.7146 17.2714 70.7226 17.4612 70.7307 17.6632C70.7469 17.857 70.759 18.059 70.7671 18.269C70.7751 18.4709 70.7832 18.6769 70.7913 18.8869C70.7994 19.0969 70.8074 19.3069 70.8155 19.517V23.8788H69.4221V15.2278H71.3365L75.4197 21.9645H75.4561C75.448 21.8029 75.4399 21.6292 75.4318 21.4435C75.4238 21.2496 75.4157 21.0517 75.4076 20.8498C75.4076 20.6478 75.4036 20.4418 75.3955 20.2318C75.3874 20.0218 75.3793 19.8199 75.3713 19.626V15.2278H76.7767V23.8788Z" fill="current"/>
<path d="M83.9492 23.8788H79.03V15.2278H83.9492V16.5242H80.5809V18.7294H83.7311V20.0258H80.5809V22.5703H83.9492V23.8788Z" fill="current"/>
<path d="M88.2459 15.2278C89.0052 15.2278 89.6312 15.3207 90.1239 15.5065C90.6166 15.6922 90.9842 15.975 91.2265 16.3546C91.4688 16.7262 91.59 17.1987 91.59 17.7722C91.59 18.1922 91.5092 18.5517 91.3477 18.8506C91.1942 19.1494 90.9922 19.3998 90.7418 19.6018C90.4914 19.7956 90.2208 19.9531 89.93 20.0743L92.4139 23.8788H90.6691L88.5972 20.462H87.3372V23.8788H85.7863V15.2278H88.2459ZM88.149 16.5242H87.3372V19.1898H88.1974C88.6255 19.1898 88.9729 19.1373 89.2394 19.0323C89.506 18.9273 89.6998 18.7738 89.821 18.5719C89.9502 18.37 90.0149 18.1195 90.0149 17.8207C90.0149 17.5057 89.9462 17.2552 89.8089 17.0695C89.6716 16.8756 89.4656 16.7383 89.191 16.6575C88.9244 16.5687 88.5771 16.5242 88.149 16.5242Z" fill="current"/>
</svg>
