<svg width="32" height="28" viewBox="0 0 32 28" fill="none" xmlns="http://www.w3.org/2000/svg">
<path d="M18 0C19.8384 3.48426e-06 21.6589 0.361928 23.3574 1.06543C25.056 1.76899 26.5994 2.80057 27.8994 4.10059C29.1994 5.4006 30.231 6.94403 30.9346 8.64258C31.6381 10.3411 32 12.1616 32 14C32 15.8384 31.6381 17.6589 30.9346 19.3574C30.231 21.056 29.1994 22.5994 27.8994 23.8994C26.5994 25.1994 25.056 26.231 23.3574 26.9346C21.667 27.6347 19.8558 27.9956 18.0264 27.999V28H9.54688C9.07559 28 8.69336 27.6178 8.69336 27.1465V22.8535C8.69336 22.3822 9.07559 22 9.54688 22H18C19.0506 22 20.0909 21.7927 21.0615 21.3906C22.032 20.9886 22.9144 20.4 23.6572 19.6572C24.4 18.9144 24.9886 18.032 25.3906 17.0615C25.7927 16.0909 26 15.0506 26 14C26 12.9494 25.7927 11.9091 25.3906 10.9385C24.9886 9.96796 24.4 9.08559 23.6572 8.34277C22.9144 7.59997 22.032 7.01141 21.0615 6.60938C20.0909 6.20735 19.0506 6 18 6H6V11.333H13.1465C13.6177 11.333 13.9999 11.7153 14 12.1865V15.8135C13.9999 16.2847 13.6177 16.667 13.1465 16.667H6V27.1465C6 27.6178 5.61777 28 5.14648 28H0.853516C0.382233 28 2.06004e-08 27.6178 0 27.1465V0.853516C-2.06004e-08 0.382233 0.382233 2.06004e-08 0.853516 0H18Z" fill="#095933"/>
<path d="M18.1338 7.3363C18.9636 7.35296 19.7832 7.52331 20.5508 7.84119C21.3595 8.17616 22.0949 8.66663 22.7139 9.28552C23.3329 9.90453 23.8242 10.6398 24.1592 11.4486C24.4942 12.2574 24.667 13.1249 24.667 14.0004C24.6669 14.8757 24.4941 15.7424 24.1592 16.5511C23.8241 17.36 23.3329 18.0952 22.7139 18.7142C22.0948 19.3332 21.3595 19.8245 20.5508 20.1595C19.7833 20.4774 18.9635 20.6458 18.1338 20.6625V20.6664H16.8535C16.3824 20.6664 16.0003 20.2849 16 19.8138V8.18689C16 7.71561 16.3822 7.33337 16.8535 7.33337H18.1338V7.3363Z" fill="#24E88B"/>
</svg>
