<svg width="33" height="28" viewBox="0 0 33 28" fill="currentColor" xmlns="http://www.w3.org/2000/svg">
<path d="M21.3262 0C27.6559 9.2772e-06 32.787 5.13122 32.7871 11.4609V15.3779C32.7871 22.3487 27.1367 27.9999 20.166 28H10.5908C9.94998 28 9.42994 27.4806 9.42969 26.8398V22.9219C9.4299 22.4413 9.82017 22.0518 10.3008 22.0518H19.4404C23.2864 22.0517 26.4043 18.9338 26.4043 15.0879V12.8203C26.4043 9.02512 23.3274 5.94825 19.5322 5.94824H7.25391V11.3164H14.3623V17.2646H7.25391V27.8545H0V0H21.3262Z" fill="current"/>
<path d="M17.1191 8.41448C17.1191 8.01385 17.4439 7.68909 17.8445 7.68909H19.2953C22.2599 7.68909 24.6632 10.0924 24.6632 13.057V15.0881C24.6632 17.8924 22.3898 20.1658 19.5855 20.1658H17.8445C17.4439 20.1658 17.1191 19.841 17.1191 19.4404V8.41448Z" fill="current"/>
</svg>
