<svg width="10" height="10" viewBox="0 0 10 10" fill="none" xmlns="http://www.w3.org/2000/svg">
<g clip-path="url(#clip0_1437_6815)">
<path d="M2.08333 4.16675C1.625 4.16675 1.25 4.54175 1.25 5.00008C1.25 5.45841 1.625 5.83341 2.08333 5.83341C2.54167 5.83341 2.91667 5.45841 2.91667 5.00008C2.91667 4.54175 2.54167 4.16675 2.08333 4.16675ZM7.91667 4.16675C7.45833 4.16675 7.08333 4.54175 7.08333 5.00008C7.08333 5.45841 7.45833 5.83341 7.91667 5.83341C8.375 5.83341 8.75 5.45841 8.75 5.00008C8.75 4.54175 8.375 4.16675 7.91667 4.16675ZM5 4.16675C4.54167 4.16675 4.16667 4.54175 4.16667 5.00008C4.16667 5.45841 4.54167 5.83341 5 5.83341C5.45833 5.83341 5.83333 5.45841 5.83333 5.00008C5.83333 4.54175 5.45833 4.16675 5 4.16675Z" fill="#525C66"/>
</g>
<defs>
<clipPath id="clip0_1437_6815">
<rect width="10" height="10" fill="white"/>
</clipPath>
</defs>
</svg>
