<svg width="20" height="20" viewBox="0 0 20 20" fill="none" xmlns="http://www.w3.org/2000/svg">
<rect x="0.25" y="0.25" width="19.5" height="19.5" rx="9.75" stroke="#30532D" stroke-width="0.5"/>
<g clip-path="url(#clip0_438_9125)">
<path d="M5 8.50006H6.5V14.5001H5C4.86739 14.5001 4.74021 14.4474 4.64645 14.3536C4.55268 14.2598 4.5 14.1327 4.5 14.0001V9.00006C4.5 8.86745 4.55268 8.74027 4.64645 8.6465C4.74021 8.55273 4.86739 8.50006 5 8.50006ZM7.6465 7.85356L10.8465 4.65356C10.889 4.6109 10.9455 4.58504 11.0056 4.58072C11.0657 4.5764 11.1253 4.59392 11.1735 4.63006L11.6 4.95006C11.7185 5.03898 11.8079 5.16098 11.8571 5.30068C11.9063 5.44038 11.9131 5.59153 11.8765 5.73506L11.3 8.00006H14.5C14.7652 8.00006 15.0196 8.10541 15.2071 8.29295C15.3946 8.48049 15.5 8.73484 15.5 9.00006V10.0521C15.5001 10.1827 15.4747 10.3122 15.425 10.4331L13.8775 14.1906C13.8397 14.2822 13.7756 14.3605 13.6933 14.4156C13.6109 14.4707 13.5141 14.5001 13.415 14.5001H8C7.86739 14.5001 7.74021 14.4474 7.64645 14.3536C7.55268 14.2598 7.5 14.1327 7.5 14.0001V8.20706C7.50003 8.07446 7.55273 7.9473 7.6465 7.85356Z" fill="#30532D"/>
</g>
<defs>
<clipPath id="clip0_438_9125">
<rect width="12" height="12" fill="white" transform="translate(4 4)"/>
</clipPath>
</defs>
</svg>
