<svg width="20" height="20" viewBox="0 0 20 20" fill="none" xmlns="http://www.w3.org/2000/svg">
<rect x="0.25" y="0.25" width="19.5" height="19.5" rx="9.75" stroke="#30532D" stroke-width="0.5"/>
<g clip-path="url(#clip0_264_6332)">
<path d="M14 15H6C5.86739 15 5.74021 14.9473 5.64645 14.8536C5.55268 14.7598 5.5 14.6326 5.5 14.5V5.5C5.5 5.36739 5.55268 5.24021 5.64645 5.14645C5.74021 5.05268 5.86739 5 6 5H14C14.1326 5 14.2598 5.05268 14.3536 5.14645C14.4473 5.24021 14.5 5.36739 14.5 5.5V14.5C14.5 14.6326 14.4473 14.7598 14.3536 14.8536C14.2598 14.9473 14.1326 15 14 15ZM8 7.5V8.5H12V7.5H8ZM8 9.5V10.5H12V9.5H8ZM8 11.5V12.5H12V11.5H8Z" fill="#30532D"/>
</g>
<defs>
<clipPath id="clip0_264_6332">
<rect width="12" height="12" fill="white" transform="translate(4 4)"/>
</clipPath>
</defs>
</svg>
