<svg width="20" height="20" viewBox="0 0 20 20" fill="none" xmlns="http://www.w3.org/2000/svg">
<rect x="0.25" y="0.25" width="19.5" height="19.5" rx="9.75" stroke="#30532D" stroke-width="0.5"/>
<g clip-path="url(#clip0_438_9106)">
<path d="M14.5895 10.3972L14.596 10.4042L9.99998 15.0002L5.40398 10.4042L5.41048 10.3972C4.87677 9.77497 4.59791 8.97403 4.62978 8.15489C4.66165 7.33574 5.00191 6.5589 5.58236 5.98002C6.16281 5.40115 6.94058 5.06302 7.75981 5.03338C8.57905 5.00374 9.37922 5.28478 9.99998 5.82019C10.6208 5.28478 11.4209 5.00374 12.2402 5.03338C13.0594 5.06302 13.8372 5.40115 14.4176 5.98002C14.9981 6.5589 15.3383 7.33574 15.3702 8.15489C15.4021 8.97403 15.1232 9.77497 14.5895 10.3972Z" fill="#30532D"/>
</g>
<defs>
<clipPath id="clip0_438_9106">
<rect width="12" height="12" fill="white" transform="translate(4 4)"/>
</clipPath>
</defs>
</svg>
