<svg width="20" height="20" viewBox="0 0 20 20" fill="none" xmlns="http://www.w3.org/2000/svg">
<rect x="0.25" y="0.25" width="19.5" height="19.5" rx="9.75" stroke="#30532D" stroke-width="0.5"/>
<g clip-path="url(#clip0_264_6331)">
<path d="M7.2275 13.5L5 15.25V6C5 5.86739 5.05268 5.74021 5.14645 5.64645C5.24021 5.55268 5.36739 5.5 5.5 5.5H14.5C14.6326 5.5 14.7598 5.55268 14.8536 5.64645C14.9473 5.74021 15 5.86739 15 6V13C15 13.1326 14.9473 13.2598 14.8536 13.3536C14.7598 13.4473 14.6326 13.5 14.5 13.5H7.2275ZM7.5 9V10H8.5V9H7.5ZM9.5 9V10H10.5V9H9.5ZM11.5 9V10H12.5V9H11.5Z" fill="#30532D"/>
</g>
<defs>
<clipPath id="clip0_264_6331">
<rect width="12" height="12" fill="white" transform="translate(4 4)"/>
</clipPath>
</defs>
</svg>
