<svg width="13" height="12" viewBox="0 0 13 12" fill="none" xmlns="http://www.w3.org/2000/svg">
<g clip-path="url(#clip0_227_7648)">
<path d="M7.8 3.99995H11C11.2652 3.99995 11.5196 4.10531 11.7071 4.29285C11.8946 4.48038 12 4.73474 12 4.99995V6.05195C12.0001 6.18263 11.9747 6.31207 11.925 6.43295L10.3775 10.1905C10.3397 10.2821 10.2756 10.3604 10.1933 10.4155C10.1109 10.4706 10.0141 10.5 9.915 10.5H1.5C1.36739 10.5 1.24021 10.4473 1.14645 10.3535C1.05268 10.2597 1 10.1326 1 9.99995V4.99995C1 4.86734 1.05268 4.74017 1.14645 4.6464C1.24021 4.55263 1.36739 4.49995 1.5 4.49995H3.241C3.32105 4.49997 3.39993 4.48077 3.47102 4.44397C3.5421 4.40716 3.60331 4.35383 3.6495 4.28845L6.376 0.424952C6.41047 0.376108 6.46129 0.341232 6.51927 0.326647C6.57724 0.312062 6.63852 0.318733 6.692 0.345452L7.599 0.798952C7.85425 0.926533 8.05817 1.13761 8.17687 1.39711C8.29556 1.65661 8.3219 1.94891 8.2515 2.22545L7.8 3.99995ZM4 5.29395V9.49995H9.58L11 6.05195V4.99995H7.8C7.6477 4.99993 7.49742 4.96512 7.36061 4.89818C7.22381 4.83124 7.10411 4.73394 7.01064 4.6137C6.91716 4.49345 6.85239 4.35345 6.82126 4.20436C6.79013 4.05528 6.79346 3.90105 6.831 3.75345L7.2825 1.97945C7.29663 1.92412 7.29139 1.86561 7.26765 1.81367C7.2439 1.76172 7.20309 1.71948 7.152 1.69395L6.8215 1.52895L4.4665 4.86495C4.3415 5.04195 4.1815 5.18695 4 5.29395V5.29395ZM3 5.49995H2V9.49995H3V5.49995Z" fill="#525C66"/>
</g>
<defs>
<clipPath id="clip0_227_7648">
<rect width="12" height="12" fill="white" transform="translate(0.5)"/>
</clipPath>
</defs>
</svg>
